<svg xmlns="http://www.w3.org/2000/svg" viewBox="0 0 60 48" fill="none">
  <rect width="60" height="48" rx="6" fill="#0c1f17"/>
  <path d="M34 7H37L39 5L42 7L45 5L48 7L51 5L54 7L57 5" stroke="white" stroke-width="1.4" stroke-linecap="round" stroke-linejoin="round"/>
  <path d="M36 9H57C56 13 54 22 48 30C42 38 32 43 18 45C12 43 8 39 6 34C14 30 26 22 32 14C34 11 36 9 36 9Z" fill="white"/>
  <path d="M52 13L36 38M48 11L30 39M44 12L22 41M40 13L16 42" stroke="#0c1f17" stroke-width="1" stroke-linecap="round" opacity="0.16"/>
  <path d="M4 36C7 39 10 38 12 41C14 44 17 43 19 41C21 44 24 43 26 41C28 43 30 42 32 40C34 42 36 41 38 39V41.5C35 44 31 45 27 44.5C23 45.5 19 44.5 15 45C11 44.5 7 45 4 42.5V36Z" fill="white"/>
  <path d="M2 44C10 42 22 42 30 44" stroke="white" stroke-width="1" stroke-linecap="round" opacity="0.5"/>
  <path d="M1 46.5C8 45 18 45 26 46.5" stroke="white" stroke-width="0.8" stroke-linecap="round" opacity="0.32"/>
</svg>
